<svg fill="currentColor" class="feather feather-github" id="logo" viewBox="0 0 90 88" xmlns="http://www.w3.org/2000/svg">
<path fill="currentColor" d="M8.69575 70.7342C9.49421 71.8606 11.0546 72.1265 12.1811 71.328C13.3075 70.5296 13.5733 68.9692 12.7749 67.8427L8.69575 70.7342ZM77.1999 67.8783C76.4002 69.0039 76.6643 70.5646 77.7899 71.3643C78.9154 72.164 80.4761 71.8999 81.2758 70.7743L77.1999 67.8783ZM26 55.5339C24.6193 55.5339 23.5 56.6532 23.5 58.0339C23.5 59.4146 24.6193 60.5339 26 60.5339V55.5339ZM64 60.5339C65.3807 60.5339 66.5 59.4146 66.5 58.0339C66.5 56.6532 65.3807 55.5339 64 55.5339V60.5339ZM26 45.5C24.6193 45.5 23.5 46.6193 23.5 48C23.5 49.3807 24.6193 50.5 26 50.5V45.5ZM29.2 85C29.2 86.3807 30.3193 87.5 31.7 87.5C33.0807 87.5 34.2 86.3807 34.2 85H29.2ZM64 50.5C65.3807 50.5 66.5 49.3807 66.5 48C66.5 46.6193 65.3807 45.5 64 45.5V50.5ZM55.1667 85C55.1667 86.3807 56.286 87.5 57.6667 87.5C59.0474 87.5 60.1667 86.3807 60.1667 85H55.1667ZM33.789 41.5C35.1697 41.5 36.289 40.3807 36.289 39C36.289 37.6193 35.1697 36.5 33.789 36.5V41.5ZM18.0001 39V36.5H15.5001L15.5001 39L18.0001 39ZM15.5 77C15.5 78.3807 16.6193 79.5 18 79.5C19.3807 79.5 20.5 78.3807 20.5 77L15.5 77ZM55.5795 36.5C54.1988 36.5 53.0795 37.6193 53.0795 39C53.0795 40.3807 54.1988 41.5 55.5795 41.5V36.5ZM72 39H74.5V36.5H72V39ZM69.5 77C69.5 78.3807 70.6193 79.5 72 79.5C73.3807 79.5 74.5 78.3807 74.5 77H69.5ZM12.7749 67.8427C8.58375 61.9302 6.10008 54.9785 5.59577 47.7487L0.607887 48.0966C1.17604 56.2416 3.9741 64.0732 8.69575 70.7342L12.7749 67.8427ZM5.59577 47.7487C5.09145 40.5189 6.58592 33.2897 9.91558 26.8525L5.47452 24.5553C1.72338 31.8074 0.0397301 39.9516 0.607887 48.0966L5.59577 47.7487ZM9.91558 26.8525C13.2452 20.4153 18.2817 15.0182 24.4737 11.2521L21.8755 6.9802C14.8997 11.223 9.22565 17.3033 5.47452 24.5553L9.91558 26.8525ZM24.4737 11.2521C30.6657 7.48598 37.7745 5.496 45.0218 5.50001L45.0246 0.500007C36.8599 0.495495 28.8512 2.73737 21.8755 6.9802L24.4737 11.2521ZM45.0218 5.50001C52.2692 5.50401 59.3758 7.50184 65.5636 11.2748L68.1666 7.00578C61.1955 2.75524 53.1894 0.504518 45.0246 0.500007L45.0218 5.50001ZM65.5636 11.2748C71.7514 15.0477 76.7819 20.4504 80.1045 26.8913L84.5481 24.599C80.805 17.3428 75.1377 11.2563 68.1666 7.00578L65.5636 11.2748ZM80.1045 26.8913C83.427 33.3321 84.9135 40.563 84.4012 47.7922L89.3887 48.1457C89.9659 40.0013 88.2912 31.8552 84.5481 24.599L80.1045 26.8913ZM84.4012 47.7922C83.8889 55.0214 81.3975 61.9704 77.1999 67.8783L81.2758 70.7743C86.0048 64.1185 88.8115 56.29 89.3887 48.1457L84.4012 47.7922ZM52.5 27C52.5 31.1421 49.1422 34.5 45 34.5V39.5C51.9036 39.5 57.5 33.9036 57.5 27H52.5ZM45 34.5C40.8579 34.5 37.5 31.1421 37.5 27H32.5C32.5 33.9036 38.0965 39.5 45 39.5V34.5ZM37.5 27C37.5 22.8579 40.8579 19.5 45 19.5V14.5C38.0965 14.5 32.5 20.0964 32.5 27H37.5ZM45 19.5C49.1422 19.5 52.5 22.8579 52.5 27H57.5C57.5 20.0964 51.9036 14.5 45 14.5V19.5ZM35.576 24.5H7.00001V29.5H35.576V24.5ZM53.816 28.5H83V23.5H53.816V28.5ZM26 60.5339H31.7V55.5339H26V60.5339ZM31.7 60.5339H57.6667V55.5339H31.7V60.5339ZM57.6667 60.5339H64V55.5339H57.6667V60.5339ZM26 50.5H31.7V45.5H26V50.5ZM29.2 48V58.0339H34.2V48H29.2ZM29.2 58.0339V85H34.2V58.0339H29.2ZM31.7 50.5H57.6667V45.5H31.7V50.5ZM57.6667 50.5H64V45.5H57.6667V50.5ZM55.1667 48V58.0339H60.1667V48H55.1667ZM55.1667 58.0339V85H60.1667V58.0339H55.1667ZM33.789 36.5H18.0001V41.5H33.789V36.5ZM15.5001 39L15.5 77L20.5 77L20.5001 39L15.5001 39ZM55.5795 41.5H72V36.5H55.5795V41.5ZM69.5 39V77H74.5V39H69.5Z"/>
</svg>

