<svg xmlns="http://www.w3.org/2000/svg" direction="ltr" width="193.91500481638104" height="190.36600353299542" viewBox="13887.775194595652 -315.8229778774429 193.91500481638104 190.36600353299542" stroke-linecap="round" stroke-linejoin="round" data-color-mode="light" class="tl-container tl-theme__force-sRGB tl-theme__light" style="background-color: rgb(249, 250, 251);"><defs/><g transform="matrix(1, 0, 0, 1, 13919.7752, -283.7606)" opacity="1"><path stroke-width="10" d="M 5.0515 -0.3801 L 21.1627 0 Q 28.2169 0 28.2169 20 L 28.2169 106.2808 Q 28.2169 126.2808 21.1627 126.2808 L 7.0542 126.2808 Q 0 126.2808 0 106.2808 L -2.0028 19.6199 Q -2.0028 -0.3801 5.0515 -0.3801 M 6.971 -1.4155 L 21.1627 0 Q 28.2169 0 28.2169 20 L 28.2169 106.2808 Q 28.2169 126.2808 21.1627 126.2808 L 7.0542 126.2808 Q 0 126.2808 0 106.2808 L -0.0832 18.5845 Q -0.0832 -1.4155 6.971 -1.4155" fill="none" stroke="#099268"/></g><g transform="matrix(1, 0, 0, 1, 13970.175, -283.823)" opacity="1"><path stroke-width="10" d="M 7.8769 -1.0011 L 21.1627 0 Q 28.2169 0 28.2169 20 L 28.2169 106.2808 Q 28.2169 126.2808 21.1627 126.2808 L 7.0542 126.2808 Q 0 126.2808 0 106.2808 L 0.8227 18.9989 Q 0.8227 -1.0011 7.8769 -1.0011 M 9.1443 -0.7995 L 21.1627 0 Q 28.2169 0 28.2169 20 L 28.2169 106.2808 Q 28.2169 126.2808 21.1627 126.2808 L 7.0542 126.2808 Q 0 126.2808 0 106.2808 L 2.0901 19.2005 Q 2.0901 -0.7995 9.1443 -0.7995" fill="none" stroke="#099268"/></g><g transform="matrix(1, 0, 0, 1, 14021.4733, -283.7378)" opacity="1"><path stroke-width="10" d="M 6.1791 2.8033 L 21.1627 0 Q 28.2169 0 28.2169 20 L 28.2169 106.2808 Q 28.2169 126.2808 21.1627 126.2808 L 7.0542 126.2808 Q 0 126.2808 0 106.2808 L -0.8751 22.8033 Q -0.8751 2.8033 6.1791 2.8033 M 4.1815 2.172 L 21.1627 0 Q 28.2169 0 28.2169 20 L 28.2169 106.2808 Q 28.2169 126.2808 21.1627 126.2808 L 7.0542 126.2808 Q 0 126.2808 0 106.2808 L -2.8727 22.172 Q -2.8727 2.172 4.1815 2.172" fill="none" stroke="#099268"/></g></svg>