<svg xmlns="http://www.w3.org/2000/svg" direction="ltr" width="135.16475170273225" height="126.32856175050483" viewBox="14903.474966755668 -1175.2752143134255 135.16475170273225 126.32856175050483" stroke-linecap="round" stroke-linejoin="round" data-color-mode="light" class="tl-container tl-theme__force-sRGB tl-theme__light" style="background-color: rgb(249, 250, 251);"><defs/><g transform="matrix(1, 0, 0, 1, 14935.475, -1128.8269)" opacity="1"><g transform="scale(1)"><path d="M-1.55,-3.0283 T-0.5831,-3.5109 1.6753,-4.8224 4.518,-6.9332 7.0328,-9.2359 8.6413,-11.0354 9.2862,-11.8143 A3.5627,3.5627 0 0 1 14.6385,-7.1107 T13.0966,-5.4898 10.4481,-2.9199 8.0318,-0.9813 5.0934,1.0159 2.5074,2.5259 1.55,3.0283 A3.402,3.402 0 0 1 -1.55,-3.0283 ZM15.4414,-10.2297 T15.678,-9.2377 16.2299,-6.6431 16.9565,-2.6234 17.8895,2.4461 19.0094,7.6459 20.2484,12.8909 21.2168,17.1127 21.8741,20.1869 22.5094,23.3118 23.0586,26.4057 23.4728,29.3448 23.8173,33.2267 23.7349,38.1254 22.4156,42.9545 19.6688,47.0863 15.7788,49.7659 11.326,50.9116 6.7016,50.0087 3.0483,47.0104 1.0365,42.9115 0.3004,40.7018 A3.3269,3.3269 0 0 1 6.6196,38.6182 T6.9863,39.6917 8.0705,42.532 10.3254,44.409 13.4949,43.8633 15.9996,42.0568 17.4165,39.3197 18.0087,35.7437 17.8475,31.3118 17.3962,27.4771 16.8093,24.5884 16.0689,21.5691 15.2786,18.5628 14.1629,14.4407 12.7313,9.1981 11.6569,5.2168 10.9482,2.4763 10.077,-1.2271 9.194,-5.2475 8.6603,-7.8116 8.4832,-8.6952 A3.5627,3.5627 0 0 1 15.4414,-10.2297 Z" stroke-linecap="round" fill="#1d1d1d"/></g></g><g transform="matrix(1, 0, 0, 1, 14960.2461, -1131.4331)" opacity="1"><g transform="scale(1)"><path d="M-1.55,-3.0283 T-0.5831,-3.5109 1.6753,-4.8224 4.518,-6.9332 7.0328,-9.2359 8.6413,-11.0354 9.2862,-11.8143 A3.5627,3.5627 0 0 1 14.6385,-7.1107 T13.0966,-5.4898 10.4481,-2.9199 8.0318,-0.9813 5.0934,1.0159 2.5074,2.5259 1.55,3.0283 A3.402,3.402 0 0 1 -1.55,-3.0283 ZM15.4414,-10.2297 T15.678,-9.2377 16.2299,-6.6431 16.9565,-2.6234 17.8895,2.4461 19.0094,7.6459 20.2484,12.8909 21.2168,17.1127 21.8741,20.1869 22.5094,23.3118 23.0586,26.4057 23.4728,29.3448 23.8173,33.2267 23.7349,38.1254 22.4156,42.9545 19.6688,47.0863 15.7788,49.7659 11.326,50.9116 6.7016,50.0087 3.0483,47.0104 1.0365,42.9115 0.3004,40.7018 A3.3269,3.3269 0 0 1 6.6196,38.6182 T6.9863,39.6917 8.0705,42.532 10.3254,44.409 13.4949,43.8633 15.9996,42.0568 17.4165,39.3197 18.0087,35.7437 17.8475,31.3118 17.3962,27.4771 16.8093,24.5884 16.0689,21.5691 15.2786,18.5628 14.1629,14.4407 12.7313,9.1981 11.6569,5.2168 10.9482,2.4763 10.077,-1.2271 9.194,-5.2475 8.6603,-7.8116 8.4832,-8.6952 A3.5627,3.5627 0 0 1 15.4414,-10.2297 Z" stroke-linecap="round" fill="#1d1d1d"/></g></g><g transform="matrix(1, 0, 0, 1, 14985.5907, -1133.8127)" opacity="1"><g transform="scale(1)"><path d="M-1.55,-3.0283 T-0.5831,-3.5109 1.6753,-4.8224 4.518,-6.9332 7.0328,-9.2359 8.6413,-11.0354 9.2862,-11.8143 A3.5627,3.5627 0 0 1 14.6385,-7.1107 T13.0966,-5.4898 10.4481,-2.9199 8.0318,-0.9813 5.0934,1.0159 2.5074,2.5259 1.55,3.0283 A3.402,3.402 0 0 1 -1.55,-3.0283 ZM15.4414,-10.2297 T15.678,-9.2377 16.2299,-6.6431 16.9565,-2.6234 17.8895,2.4461 19.0094,7.6459 20.2484,12.8909 21.2168,17.1127 21.8741,20.1869 22.5094,23.3118 23.0586,26.4057 23.4728,29.3448 23.8173,33.2267 23.7349,38.1254 22.4156,42.9545 19.6688,47.0863 15.7788,49.7659 11.326,50.9116 6.7016,50.0087 3.0483,47.0104 1.0365,42.9115 0.3004,40.7018 A3.3269,3.3269 0 0 1 6.6196,38.6182 T6.9863,39.6917 8.0705,42.532 10.3254,44.409 13.4949,43.8633 15.9996,42.0568 17.4165,39.3197 18.0087,35.7437 17.8475,31.3118 17.3962,27.4771 16.8093,24.5884 16.0689,21.5691 15.2786,18.5628 14.1629,14.4407 12.7313,9.1981 11.6569,5.2168 10.9482,2.4763 10.077,-1.2271 9.194,-5.2475 8.6603,-7.8116 8.4832,-8.6952 A3.5627,3.5627 0 0 1 15.4414,-10.2297 Z" stroke-linecap="round" fill="#1d1d1d"/></g></g></svg>